<mxfile host="app.diagrams.net" modified="2023-05-20T05:29:03.594Z" agent="Mozilla/5.0 (Windows NT 10.0; Win64; x64) AppleWebKit/537.36 (KHTML, like Gecko) Chrome/115.0.0.0 Safari/537.36 Edg/115.0.0.0" version="21.3.2" etag="I7yjAA7cmPncjQ47FiR3" type="github">
  <diagram name="第 1 页" id="CqxwUHyyiYLeX58MpTaX">
    <mxGraphModel>
      <root>
        <mxCell id="0" />
        <mxCell id="1" parent="0" />
      </root>
    </mxGraphModel>
  </diagram>
</mxfile>
